<?xml version="1.0" encoding="iso-8859-1"?>
<!-- Generator: Adobe Illustrator 19.0.0, SVG Export Plug-In . SVG Version: 6.00 Build 0)  -->
<svg version="1.1" id="Layer_1" xmlns="http://www.w3.org/2000/svg" xmlns:xlink="http://www.w3.org/1999/xlink" x="0px" y="0px"
	 viewBox="0 0 512 512" style="enable-background:new 0 0 512 512;" xml:space="preserve">
<g>
	<g>
		<g>
			<path d="M341.333,106.667V21.333C341.333,9.557,331.776,0,320,0H21.333C9.557,0,0,9.557,0,21.333V320
				c0,11.776,9.557,21.333,21.333,21.333h85.333c11.776,0,21.333-9.557,21.333-21.333V128h192
				C331.776,128,341.333,118.443,341.333,106.667z"/>
			<path d="M490.667,170.667h-85.333C393.557,170.667,384,180.224,384,192v192H192c-11.776,0-21.333,9.557-21.333,21.333v85.333
				c0,11.776,9.557,21.333,21.333,21.333h298.667c11.797,0,21.333-9.557,21.333-21.333V192
				C512,180.224,502.464,170.667,490.667,170.667z"/>
			<path d="M320,170.667H192c-11.776,0-21.333,9.557-21.333,21.333v128c0,11.776,9.557,21.333,21.333,21.333h128
				c11.776,0,21.333-9.557,21.333-21.333V192C341.333,180.224,331.776,170.667,320,170.667z"/>
		</g>
	</g>
</g>
<g>
</g>
<g>
</g>
<g>
</g>
<g>
</g>
<g>
</g>
<g>
</g>
<g>
</g>
<g>
</g>
<g>
</g>
<g>
</g>
<g>
</g>
<g>
</g>
<g>
</g>
<g>
</g>
<g>
</g>
</svg>
