  <svg id="Слой_1" data-name="Слой 1" xmlns="http://www.w3.org/2000/svg" viewBox="0 0 102.61538 30.59633"><defs><style>.cls-1{fill:#7abae4;}</style></defs><title>Logo_Moni</title><path class="cls-1" d="M31.86,12.74158a7.43514,7.43514,0,0,0-2.82428-3.5115,7.79471,7.79471,0,0,0-4.39661-1.26159H23.26462a7.76364,7.76364,0,0,0-4.387,1.26159,7.04858,7.04858,0,0,0-1.97685,1.9394,7.2144,7.2144,0,0,0-1.98651-1.9394,7.79472,7.79472,0,0,0-4.39662-1.26159H9.14324a7.76364,7.76364,0,0,0-4.387,1.26159,7.509,7.509,0,0,0-2.8337,3.5115A18.79711,18.79711,0,0,0,1,19.49176v11.5605a1.53887,1.53887,0,0,0,1.54407,1.54407H2.6098a1.53887,1.53887,0,0,0,1.54407-1.54407V19.49176A17.0493,17.0493,0,0,1,4.70916,14.182,4.76808,4.76808,0,0,1,6.58259,11.8567a5.53018,5.53018,0,0,1,2.89024-.866v.01885c.12227-.00943.60264-.00943.72492,0v-.01885a5.47036,5.47036,0,0,1,2.88081.866A4.73542,4.73542,0,0,1,14.96141,14.182a7.94787,7.94787,0,0,1,.36706,1.63807l.09883,1.05957c.05263.753.08,1.61853.08,2.61213v11.5605a1.52707,1.52707,0,0,0,1.38387,1.52522,1.51979,1.51979,0,0,0,1.3841-1.52522V19.49176c0-.88488.01885-1.67576.06574-2.363l.00183-.02275.12067-1.286a7.37349,7.37349,0,0,1,.367-1.63807A4.76813,4.76813,0,0,1,20.704,11.8567a5.53018,5.53018,0,0,1,2.89024-.866v.01885c.12228-.00943.60264-.00943.72492,0v-.01885a5.47043,5.47043,0,0,1,2.88082.866A4.73553,4.73553,0,0,1,29.0828,14.182a17.12931,17.12931,0,0,1,.54587,5.30977v11.5605a1.54487,1.54487,0,0,0,1.54406,1.54407h.066A1.54686,1.54686,0,0,0,32.792,31.05226V19.49176A18.55241,18.55241,0,0,0,31.86,12.74158Z" transform="translate(-1 -2)"/><path class="cls-1" d="M77.9928,12.73814a7.49929,7.49929,0,0,0-2.828-3.50829,7.78563,7.78563,0,0,0-4.39178-1.25768H69.39585a7.78563,7.78563,0,0,0-4.39178,1.25768,7.49923,7.49923,0,0,0-2.828,3.50829,18.70646,18.70646,0,0,0-.92487,6.75178V31.0518a1.54462,1.54462,0,0,0,1.54452,1.54453h.0662a1.54463,1.54463,0,0,0,1.54452-1.54453V19.48992a17.14561,17.14561,0,0,1,.54978-5.30655,4.77939,4.77939,0,0,1,1.88009-2.32782,5.5172,5.5172,0,0,1,2.88771-.86466v.01448c.12067-.00713.60012-.00713.72078,0v-.01448a5.5172,5.5172,0,0,1,2.88772.86466,4.77944,4.77944,0,0,1,1.88009,2.32782,17.14561,17.14561,0,0,1,.54978,5.30655V31.0518A1.54463,1.54463,0,0,0,77.307,32.59633h.0662a1.54463,1.54463,0,0,0,1.54452-1.54453V19.48992A18.70646,18.70646,0,0,0,77.9928,12.73814Z" transform="translate(-1 -2)"/><path class="cls-1" d="M56.3276,19.49176v1.59095a18.62034,18.62034,0,0,1-.932,6.75,7.38837,7.38837,0,0,1-2.23129,3.05963V19.49176a17.12931,17.12931,0,0,0-.54587-5.30977,4.73553,4.73553,0,0,0-1.88285-2.32529,5.47043,5.47043,0,0,0-2.88082-.866v.01885c-.12228-.00943-.60264-.00943-.72492,0v-.01885a5.53018,5.53018,0,0,0-2.89024.866A4.76813,4.76813,0,0,0,42.36618,14.182a17.0493,17.0493,0,0,0-.55529,5.30977V30.89229a7.6197,7.6197,0,0,1-2.23129-3.05963,18.86622,18.86622,0,0,1-.92258-6.75V19.49176a18.79733,18.79733,0,0,1,.92258-6.75018,7.65484,7.65484,0,0,1,2.23129-3.06905,7.124,7.124,0,0,1,.60241-.44245,7.76364,7.76364,0,0,1,4.387-1.26159h1.37445a7.79471,7.79471,0,0,1,4.39661,1.26159,6.9723,6.9723,0,0,1,.593.44245,7.36033,7.36033,0,0,1,2.23129,3.06905A18.55263,18.55263,0,0,1,56.3276,19.49176Z" transform="translate(-1 -2)"/><path class="cls-1" d="M56.3276,19.49176v1.59095a18.62034,18.62034,0,0,1-.932,6.75,7.38837,7.38837,0,0,1-2.23129,3.05963,6.92154,6.92154,0,0,1-.593.44245,7.79291,7.79291,0,0,1-4.39661,1.26159H46.80026a7.76185,7.76185,0,0,1-4.387-1.26159,7.07175,7.07175,0,0,1-.60241-.44245,7.6197,7.6197,0,0,1-2.23129-3.05963,18.86622,18.86622,0,0,1-.92258-6.75V19.49176a18.79733,18.79733,0,0,1,.92258-6.75018,7.65484,7.65484,0,0,1,2.23129-3.06905V21.08271a17.01826,17.01826,0,0,0,.55529,5.30012,4.79063,4.79063,0,0,0,1.87343,2.33472,5.52206,5.52206,0,0,0,2.89024.85684V29.565c.12228.00942.60264.00942.72492,0v.00942a5.46256,5.46256,0,0,0,2.88082-.85684,4.75768,4.75768,0,0,0,1.88285-2.33472,17.09784,17.09784,0,0,0,.54587-5.30012V9.67253a7.36033,7.36033,0,0,1,2.23129,3.06905A18.55263,18.55263,0,0,1,56.3276,19.49176Z" transform="translate(-1 -2)"/><path class="cls-1" d="M101.557,23.65281a1.55657,1.55657,0,0,0-1.5357,1.32914,6.88785,6.88785,0,0,1-.33155,1.40318A4.77939,4.77939,0,0,1,97.80962,28.713a5.51726,5.51726,0,0,1-2.88771.86466v-.01448c-.12067.00712-.60011.00712-.72078,0v.01448a5.51726,5.51726,0,0,1-2.88771-.86466,4.77941,4.77941,0,0,1-1.8801-2.32782,17.146,17.146,0,0,1-.54977-5.30655V9.54979a1.57762,1.57762,0,0,0-1.57763-1.57762h0A1.57761,1.57761,0,0,0,85.7283,9.54979V21.07858a18.70642,18.70642,0,0,0,.92488,6.75178,7.49914,7.49914,0,0,0,2.82795,3.50828,7.78559,7.78559,0,0,0,4.39179,1.25769h1.3772a7.78559,7.78559,0,0,0,4.39179-1.25769,7.4992,7.4992,0,0,0,2.828-3.50828,10.80223,10.80223,0,0,0,.621-2.35148,1.56541,1.56541,0,0,0-1.53391-1.82607Z" transform="translate(-1 -2)"/><circle class="cls-1" cx="86.14044" cy="1.41214" r="1.41214"/><circle class="cls-1" cx="101.20325" cy="18.3578" r="1.41214"/></svg>