<?xml version="1.0" encoding="iso-8859-1"?>
<!-- Generator: Adobe Illustrator 16.0.0, SVG Export Plug-In . SVG Version: 6.00 Build 0)  -->
<!DOCTYPE svg PUBLIC "-//W3C//DTD SVG 1.1//EN" "http://www.w3.org/Graphics/SVG/1.1/DTD/svg11.dtd">
<svg version="1.1" id="Capa_1" xmlns="http://www.w3.org/2000/svg" xmlns:xlink="http://www.w3.org/1999/xlink" x="0px" y="0px"
	 width="25px" height="25px" viewBox="0 0 25 25" style="enable-background:new 0 0 25 25;" xml:space="preserve">
<g>
	<g>
		<path d="M23,4H2C0.9,4,0,4.9,0,6v2.096h25V6C25,4.9,24.1,4,23,4z"/>
		<path d="M0,19c0,1.1,0.9,2,2,2h21c1.1,0,2-0.9,2-2v-4.188H0V19z"/>
		<rect y="8.813" width="5.282" height="5.282"/>
		<path d="M6.282,14.096H25V8.814H6.282V14.096z M23,10.377c0.596,0,1.077,0.482,1.077,1.077c0,0.595-0.481,1.077-1.077,1.077
			s-1.077-0.482-1.077-1.077C21.923,10.859,22.404,10.377,23,10.377z"/>
	</g>
</g>
<g>
</g>
<g>
</g>
<g>
</g>
<g>
</g>
<g>
</g>
<g>
</g>
<g>
</g>
<g>
</g>
<g>
</g>
<g>
</g>
<g>
</g>
<g>
</g>
<g>
</g>
<g>
</g>
<g>
</g>
</svg>
